<svg width="24" height="24" viewBox="0 0 24 24" fill="none" xmlns="http://www.w3.org/2000/svg">
<path d="M11.9999 15C7.86807 15 4.01991 13.7857 1.70596 11.751C1.50678 11.5759 1.38532 11.3289 1.36828 11.0643C1.35124 10.7996 1.44003 10.539 1.61512 10.3399C1.7902 10.1407 2.03724 10.0192 2.30188 10.0022C2.56652 9.98515 2.82709 10.0739 3.02627 10.249C4.98575 11.9717 8.34024 13 11.9999 13C15.6596 13 19.0141 11.9717 20.9735 10.249C21.0722 10.1623 21.1869 10.0959 21.3112 10.0536C21.4355 10.0112 21.5669 9.99375 21.6979 10.0022C21.829 10.0106 21.9571 10.0448 22.0749 10.1027C22.1927 10.1607 22.298 10.2412 22.3847 10.3399C22.4714 10.4385 22.5378 10.5532 22.5802 10.6775C22.6225 10.8018 22.64 10.9332 22.6315 11.0643C22.6231 11.1953 22.5889 11.3234 22.531 11.4412C22.4731 11.5591 22.3925 11.6643 22.2938 11.751C19.9799 13.7857 16.1318 15 11.9999 15Z" fill="#6D6D6D"/>
<path d="M12 18C11.7348 18 11.4804 17.8946 11.2929 17.7071C11.1054 17.5196 11 17.2652 11 17V14C11 13.7348 11.1054 13.4804 11.2929 13.2929C11.4804 13.1054 11.7348 13 12 13C12.2652 13 12.5196 13.1054 12.7071 13.2929C12.8946 13.4804 13 13.7348 13 14V17C13 17.2652 12.8946 17.5196 12.7071 17.7071C12.5196 17.8946 12.2652 18 12 18Z" fill="#6D6D6D"/>
<path d="M7.74845 17.6675C7.69132 17.6677 7.6343 17.6628 7.57804 17.6529C7.4486 17.6307 7.3248 17.5832 7.21373 17.5132C7.10265 17.4431 7.00647 17.3518 6.9307 17.2446C6.85492 17.1373 6.80102 17.0162 6.7721 16.8881C6.74317 16.76 6.73978 16.6275 6.76212 16.498L7.267 13.563C7.28925 13.4336 7.33677 13.3099 7.40684 13.1989C7.47692 13.0878 7.56818 12.9917 7.67541 12.9159C7.78264 12.8402 7.90375 12.7863 8.03181 12.7573C8.15987 12.7283 8.29239 12.7249 8.42178 12.7471C8.55118 12.7694 8.67493 12.8169 8.78596 12.887C8.897 12.957 8.99314 13.0483 9.06891 13.1555C9.14467 13.2628 9.19857 13.3839 9.22753 13.5119C9.2565 13.64 9.25995 13.7725 9.2377 13.9019L8.73282 16.837C8.69289 17.0692 8.57224 17.2799 8.39215 17.4318C8.21205 17.5838 7.98408 17.6672 7.74845 17.6675Z" fill="#6D6D6D"/>
<path d="M3.6359 16.3062C3.47572 16.3059 3.31794 16.2672 3.17581 16.1934C3.03368 16.1195 2.91134 16.0127 2.81906 15.8817C2.72679 15.7508 2.66727 15.5996 2.64551 15.441C2.62375 15.2823 2.64038 15.1207 2.69401 14.9697L3.67253 12.2251C3.71664 12.1014 3.78469 11.9876 3.87278 11.8902C3.96088 11.7928 4.06729 11.7137 4.18595 11.6575C4.30461 11.6012 4.43319 11.5689 4.56434 11.5623C4.6955 11.5557 4.82667 11.575 4.95036 11.6192C5.07405 11.6633 5.18785 11.7313 5.28524 11.8194C5.38263 11.9075 5.46172 12.0139 5.51799 12.1326C5.57426 12.2512 5.6066 12.3798 5.61318 12.511C5.61976 12.6421 5.60043 12.7733 5.55632 12.897L4.5778 15.6416C4.50846 15.836 4.38074 16.0041 4.21213 16.1231C4.04352 16.2421 3.84225 16.306 3.6359 16.3062Z" fill="#6D6D6D"/>
<path d="M16.2513 17.6674C16.0156 17.6671 15.7877 17.5837 15.6076 17.4317C15.4275 17.2798 15.3068 17.0691 15.2669 16.8369L14.762 13.9018C14.7171 13.6405 14.7778 13.372 14.9308 13.1554C15.0838 12.9389 15.3166 12.7919 15.5779 12.747C15.8393 12.7021 16.1077 12.7628 16.3243 12.9158C16.5409 13.0688 16.6878 13.3016 16.7327 13.5629L17.2376 16.498C17.2599 16.6274 17.2565 16.7599 17.2276 16.888C17.1987 17.0161 17.1448 17.1373 17.069 17.2445C16.9932 17.3518 16.8971 17.443 16.786 17.5131C16.6749 17.5831 16.5511 17.6306 16.4217 17.6528C16.3654 17.6627 16.3084 17.6676 16.2513 17.6674Z" fill="#6D6D6D"/>
<path d="M20.3643 16.3061C20.1579 16.306 19.9566 16.2421 19.788 16.1232C19.6194 16.0042 19.4917 15.836 19.4224 15.6416L18.4439 12.897C18.3997 12.7733 18.3804 12.6421 18.387 12.511C18.3936 12.3798 18.4259 12.2512 18.4822 12.1326C18.5958 11.8929 18.8 11.7082 19.0498 11.6191C19.2996 11.5301 19.5746 11.5438 19.8142 11.6575C20.0539 11.7711 20.2386 11.9753 20.3276 12.2251L21.3062 14.9697C21.3598 15.1207 21.3764 15.2823 21.3547 15.441C21.3329 15.5997 21.2734 15.7508 21.1811 15.8817C21.0888 16.0127 20.9665 16.1195 20.8244 16.1934C20.6822 16.2672 20.5245 16.3059 20.3643 16.3062L20.3643 16.3061Z" fill="#6D6D6D"/>
</svg>
