<svg width="24" height="24" viewBox="0 0 24 24" fill="none" xmlns="http://www.w3.org/2000/svg">
<path d="M0 17.6842C0 18.8021 0.585 19.7937 1.5 20.4884V22.7368C1.5 23.4316 2.175 24 3 24H4.5C5.3325 24 6 23.4316 6 22.7368V21.4737H18V22.7368C18 23.4316 18.6675 24 19.5 24H21C21.825 24 22.5 23.4316 22.5 22.7368V20.4884C23.415 19.7937 24 18.8021 24 17.6842V5.05263C24 0.631579 18.63 0 12 0C5.37 0 0 0.631579 0 5.05263V17.6842ZM5.25 18.9474C4.005 18.9474 3 18.1011 3 17.0526C3 16.0042 4.005 15.1579 5.25 15.1579C6.495 15.1579 7.5 16.0042 7.5 17.0526C7.5 18.1011 6.495 18.9474 5.25 18.9474ZM18.75 18.9474C17.505 18.9474 16.5 18.1011 16.5 17.0526C16.5 16.0042 17.505 15.1579 18.75 15.1579C19.995 15.1579 21 16.0042 21 17.0526C21 18.1011 19.995 18.9474 18.75 18.9474ZM21 11.3684H3V5.05263H21V11.3684Z" fill="black" fill-opacity="0.5"/>
</svg>
