<svg width="20" height="28" viewBox="0 0 20 28" fill="none" xmlns="http://www.w3.org/2000/svg">
<path d="M18 11H16.3217V7.59902C16.3217 4.30434 13.4685 1.5942 10 1.5942C6.53146 1.5942 3.67832 4.30434 3.67832 7.59902V11H2V7.59902C2 3.40096 5.58041 0 10 0C14.4196 0 18 3.40096 18 7.59902V11Z" fill="black" fill-opacity="0.5"/>
<path d="M17.2727 27.2159H2.72728C1.25001 27.2159 0 25.9659 0 24.4886V13.5795C0 12.1022 1.25001 10.8522 2.72728 10.8522H17.2727C18.75 10.8522 20 12.1022 20 13.5795V24.4886C20 26.0227 18.75 27.2159 17.2727 27.2159ZM2.72728 12.6704C2.21592 12.6704 1.81819 13.0681 1.81819 13.5795V24.4886C1.81819 25 2.21592 25.3977 2.72728 25.3977H17.2727C17.7841 25.3977 18.1818 25 18.1818 24.4886V13.5795C18.1818 13.0681 17.7841 12.6704 17.2727 12.6704H2.72728Z" fill="black" fill-opacity="0.5"/>
<path d="M11.8181 16.3068C11.8181 17.3296 11.0227 18.125 9.99994 18.125C8.97722 18.125 8.18176 17.3296 8.18176 16.3068C8.18176 15.2841 8.97722 14.4886 9.99994 14.4886C11.0227 14.4886 11.8181 15.3409 11.8181 16.3068Z" fill="black" fill-opacity="0.5"/>
<path d="M10.3333 18H9.66666L9 22H11L10.3333 18Z" fill="black" fill-opacity="0.5"/>
</svg>
