<svg width="23" height="22" viewBox="0 0 23 22" fill="none" xmlns="http://www.w3.org/2000/svg">
<path d="M11.488 21.7192L11.1035 21.3555C2.35528 13.6654 0 10.9635 0 6.54694C0 2.90975 2.73982 0 6.05645 0C8.84434 0 10.4306 1.71467 11.488 3.01366C12.5455 1.71467 14.1317 0 16.9196 0C20.2843 0 22.9761 2.96171 22.9761 6.54694C22.9761 10.9635 20.6208 13.6654 11.8726 21.3555L11.488 21.7192ZM6.05645 1.35095C3.41276 1.35095 1.24974 3.68914 1.24974 6.54694C1.24974 10.34 3.46083 12.8341 11.488 19.9526C19.5152 12.8341 21.7263 10.34 21.7263 6.54694C21.7263 3.68914 19.5633 1.35095 16.9196 1.35095C14.5163 1.35095 13.2185 2.90975 12.209 4.15679L11.488 5.0401L10.767 4.15679C9.75762 2.90975 8.45981 1.35095 6.05645 1.35095Z" fill="black" fill-opacity="0.5"/>
</svg>
