<svg width="20" height="24" viewBox="0 0 20 24" fill="none" xmlns="http://www.w3.org/2000/svg">
<path d="M2.33393 23.8285C2.03452 23.8291 1.73897 23.761 1.46993 23.6297C1.07481 23.435 0.743539 23.1316 0.515144 22.7549C0.286748 22.3783 0.17074 21.9443 0.180785 21.504V2.49596C0.1585 1.90344 0.371806 1.32622 0.774034 0.890584C1.17626 0.454944 1.73466 0.196353 2.32707 0.171387H17.6734C18.2658 0.196353 18.8242 0.454944 19.2264 0.890584C19.6286 1.32622 19.8419 1.90344 19.8196 2.49596V21.504C19.8297 21.9443 19.7137 22.3783 19.4853 22.7549C19.2569 23.1316 18.9256 23.435 18.5305 23.6297C18.1841 23.7975 17.7964 23.8616 17.4144 23.8142C17.0324 23.7667 16.6722 23.6098 16.3774 23.3622L10.2059 18.336C10.1487 18.2867 10.0757 18.2596 10.0002 18.2596C9.92472 18.2596 9.85173 18.2867 9.7945 18.336L3.62307 23.3622C3.25931 23.6605 2.80432 23.8251 2.33393 23.8285ZM10.0002 16.5462C10.4698 16.5478 10.9247 16.7099 11.2894 17.0057L17.4608 22.032C17.5045 22.0745 17.5606 22.1021 17.621 22.1107C17.6813 22.1193 17.7429 22.1086 17.7968 22.08C17.8987 22.0244 17.9821 21.9403 18.0369 21.838C18.0918 21.7357 18.1155 21.6196 18.1054 21.504V2.49596C18.1054 2.17367 17.8996 1.88567 17.6734 1.88567H2.32707C2.10079 1.88567 1.89507 2.17367 1.89507 2.49596V21.504C1.8849 21.6196 1.90867 21.7357 1.96348 21.838C2.01829 21.9403 2.10175 22.0244 2.20364 22.08C2.25751 22.1086 2.31908 22.1193 2.37946 22.1107C2.43985 22.1021 2.49594 22.0745 2.53964 22.032L8.71107 17.0057C9.07576 16.7099 9.53066 16.5478 10.0002 16.5462Z" fill="black" fill-opacity="0.5"/>
</svg>
