<svg width="23" height="22" viewBox="0 0 23 22" fill="none" xmlns="http://www.w3.org/2000/svg">
<path d="M16.8382 21.7191C15.9442 21.7129 15.0541 21.6068 14.1865 21.4031C11.1901 20.7197 8.10466 18.9862 5.4998 16.5217C2.89495 14.0572 1.05875 11.14 0.335817 8.31027C-0.425408 5.33364 0.117508 2.78702 1.86284 1.13718L2.36118 0.666107C2.81332 0.23956 3.42601 0 4.06479 0C4.70357 0 5.31626 0.23956 5.7684 0.666107L8.63214 3.37263C9.08366 3.79989 9.33727 4.37911 9.33727 4.98303C9.33727 5.58695 9.08366 6.16617 8.63214 6.59344L6.94053 8.19196C7.75147 9.53711 8.85445 10.8833 10.158 12.1156C11.4616 13.3478 12.8869 14.391 14.3093 15.1576L16.0004 13.5585C16.2241 13.347 16.4896 13.1792 16.782 13.0647C17.0743 12.9502 17.3876 12.8913 17.704 12.8913C18.0204 12.8913 18.3337 12.9502 18.626 13.0647C18.9183 13.1792 19.1839 13.347 19.4076 13.5585L22.2708 16.2651C22.7224 16.6922 22.9761 17.2713 22.9761 17.8752C22.9761 18.4791 22.7224 19.0582 22.2708 19.4853L21.7718 19.9564C20.5414 21.1217 18.8384 21.7191 16.8382 21.7191ZM4.06479 1.6196C3.97354 1.61917 3.88312 1.63596 3.79883 1.66899C3.71453 1.70201 3.63806 1.7506 3.57388 1.81192L3.07497 2.28299C1.76797 3.51849 1.38622 5.52433 2 7.92779C2.64978 10.4739 4.32253 13.1193 6.70965 15.3753C9.09676 17.6313 11.8948 19.2109 14.5888 19.8273C17.1319 20.4075 19.2527 20.0466 20.5597 18.8111L21.0581 18.3401C21.1883 18.2169 21.2614 18.0499 21.2614 17.8757C21.2614 17.7016 21.1883 17.5346 21.0581 17.4114L18.1955 14.7049C18.0652 14.5818 17.8885 14.5127 17.7043 14.5127C17.5201 14.5127 17.3434 14.5818 17.2131 14.7049L15.0694 16.7313C14.9408 16.8529 14.7745 16.9327 14.5947 16.9592C14.4149 16.9856 14.2309 16.9572 14.0693 16.8782C12.312 16.0193 10.5403 14.7686 8.94589 13.2614C7.35143 11.7542 6.03129 10.0806 5.12033 8.41939C5.03668 8.26667 5.0066 8.09274 5.03444 7.92279C5.06228 7.75283 5.1466 7.59565 5.27521 7.474L7.41944 5.44762C7.54964 5.32444 7.62279 5.15743 7.62279 4.9833C7.62279 4.80917 7.54964 4.64216 7.41944 4.51898L4.55627 1.81192C4.49189 1.75071 4.4153 1.70219 4.33093 1.66918C4.24656 1.63616 4.1561 1.61931 4.06479 1.6196Z" fill="black" fill-opacity="0.5"/>
<path d="M17.7537 11.9773C17.5263 11.9773 17.3083 11.892 17.1475 11.74C16.9868 11.588 16.8965 11.3819 16.8965 11.167C16.8948 9.74542 16.2967 8.38251 15.2334 7.37725C14.17 6.37199 12.7283 5.80647 11.2244 5.80475C10.9971 5.80475 10.779 5.71938 10.6183 5.56741C10.4575 5.41544 10.3672 5.20933 10.3672 4.99442C10.3672 4.7795 10.4575 4.57339 10.6183 4.42142C10.779 4.26946 10.9971 4.18408 11.2244 4.18408C15.2974 4.18408 18.6109 7.31738 18.6109 11.167C18.6109 11.3819 18.5206 11.588 18.3599 11.74C18.1991 11.892 17.9811 11.9773 17.7537 11.9773Z" fill="black" fill-opacity="0.5"/>
<path d="M21.3769 11.9773C21.1496 11.9773 20.9316 11.8919 20.7708 11.74C20.61 11.588 20.5197 11.3819 20.5197 11.167C20.5197 6.32171 16.3478 2.3797 11.2244 2.3797C10.9971 2.3797 10.779 2.29433 10.6183 2.14236C10.4575 1.99039 10.3672 1.78428 10.3672 1.56937C10.3672 1.35445 10.4575 1.14834 10.6183 0.996375C10.779 0.844408 10.9971 0.759033 11.2244 0.759033C17.2954 0.759033 22.2342 5.42818 22.2342 11.167C22.2342 11.3819 22.1439 11.588 21.9831 11.74C21.8223 11.8919 21.6043 11.9773 21.3769 11.9773Z" fill="black" fill-opacity="0.5"/>
</svg>
