<svg width="35" height="35" viewBox="0 0 35 35" fill="none" xmlns="http://www.w3.org/2000/svg">
<path d="M30.625 0H4.375C1.95875 0 0 1.95875 0 4.375V30.625C0 33.0412 1.95875 35 4.375 35H30.625C33.0412 35 35 33.0412 35 30.625V4.375C35 1.95875 33.0412 0 30.625 0Z" fill="#3B5998"/>
<path d="M19.617 31.1718V18.6988H23.8036L24.4304 13.8383H19.6171V10.7351C19.6171 9.32772 20.0081 8.36856 22.0257 8.36856L24.5998 8.3678V4.02004C24.1548 3.96031 22.6272 3.82809 20.8491 3.82809C17.138 3.82809 14.5976 6.09392 14.5976 10.2537V13.8383H10.4002V18.6988H14.5975V31.1718H19.617V31.1718Z" fill="white"/>
</svg>
