<svg width="82" height="69" viewBox="0 0 82 69" fill="none" xmlns="http://www.w3.org/2000/svg">
<g filter="url(#filter0_d_411_2093)">
<path d="M53.76 48.4463C58.2656 48.4495 62.6829 47.1959 66.5152 44.8265C70.3475 42.4571 73.4431 39.0657 75.4539 35.0337C77.4647 31.0016 78.3111 26.4887 77.8979 22.002C77.4848 17.5153 75.8285 13.2328 73.1151 9.63578C70.4018 6.03874 66.739 3.26977 62.5384 1.64007C58.3378 0.0103654 53.7659 -0.415465 49.3366 0.410436C44.9073 1.23634 40.7962 3.28123 37.4652 6.31529C34.1342 9.34935 31.7155 13.2523 30.4808 17.5855C28.2957 16.0866 25.789 15.122 23.1627 14.7697C20.5364 14.4173 17.8641 14.6869 15.3611 15.5568C12.8581 16.4266 10.5946 17.8725 8.75289 19.7776C6.9112 21.6828 5.54293 23.9941 4.75836 26.5251C3.9738 29.0561 3.79489 31.736 4.23607 34.3489C4.67726 36.9617 5.72618 39.4343 7.29828 41.5674C8.87039 43.7005 10.9217 45.4343 13.2868 46.6292C15.652 47.8241 18.2647 48.4465 20.9146 48.4463H53.76Z" fill="white"/>
</g>
<path d="M45.8454 32.9164L27.8677 53.1605L38.7426 53.2886L34.7418 68.9486L54.1149 48.4266H42.0693L45.8454 32.9164Z" fill="#F5CE42"/>
<defs>
<filter id="filter0_d_411_2093" x="0" y="0" width="82" height="56.4464" filterUnits="userSpaceOnUse" color-interpolation-filters="sRGB">
<feFlood flood-opacity="0" result="BackgroundImageFix"/>
<feColorMatrix in="SourceAlpha" type="matrix" values="0 0 0 0 0 0 0 0 0 0 0 0 0 0 0 0 0 0 127 0" result="hardAlpha"/>
<feOffset dy="4"/>
<feGaussianBlur stdDeviation="2"/>
<feComposite in2="hardAlpha" operator="out"/>
<feColorMatrix type="matrix" values="0 0 0 0 0 0 0 0 0 0 0 0 0 0 0 0 0 0 0.25 0"/>
<feBlend mode="normal" in2="BackgroundImageFix" result="effect1_dropShadow_411_2093"/>
<feBlend mode="normal" in="SourceGraphic" in2="effect1_dropShadow_411_2093" result="shape"/>
</filter>
</defs>
</svg>
