<svg width="79" height="79" viewBox="0 0 79 79" fill="none" xmlns="http://www.w3.org/2000/svg">
<g filter="url(#filter0_d_411_2121)">
<path d="M66.7719 43.4878C61.4114 43.4923 56.118 42.2958 51.2806 39.9862C46.4432 37.6766 42.1847 34.3125 38.8179 30.1412C35.4511 25.9699 33.0616 21.0973 31.825 15.8814C30.5883 10.6655 30.536 5.23881 31.6717 0C25.4185 1.47274 19.675 4.59639 15.0404 9.04512C10.4057 13.4939 7.04963 19.1047 5.32222 25.2924C3.59481 31.4801 3.55935 38.0179 5.21953 44.2239C6.87971 50.43 10.1747 56.0769 14.7608 60.5757C19.347 65.0744 25.0562 68.2602 31.2931 69.8007C37.5299 71.3412 44.0659 71.1799 50.2192 69.3338C56.3725 67.4877 61.9177 64.0243 66.2765 59.3049C70.6352 54.5856 73.6478 48.7831 75 42.5027C72.3044 43.1467 69.5434 43.4773 66.7719 43.4878Z" fill="#F5CE42"/>
</g>
<defs>
<filter id="filter0_d_411_2121" x="0" y="0" width="79" height="78.8481" filterUnits="userSpaceOnUse" color-interpolation-filters="sRGB">
<feFlood flood-opacity="0" result="BackgroundImageFix"/>
<feColorMatrix in="SourceAlpha" type="matrix" values="0 0 0 0 0 0 0 0 0 0 0 0 0 0 0 0 0 0 127 0" result="hardAlpha"/>
<feOffset dy="4"/>
<feGaussianBlur stdDeviation="2"/>
<feComposite in2="hardAlpha" operator="out"/>
<feColorMatrix type="matrix" values="0 0 0 0 0 0 0 0 0 0 0 0 0 0 0 0 0 0 0.25 0"/>
<feBlend mode="normal" in2="BackgroundImageFix" result="effect1_dropShadow_411_2121"/>
<feBlend mode="normal" in="SourceGraphic" in2="effect1_dropShadow_411_2121" result="shape"/>
</filter>
</defs>
</svg>
