<svg width="76" height="80" viewBox="0 0 76 80" fill="none" xmlns="http://www.w3.org/2000/svg">
<path d="M24.9736 4.72323C24.9766 7.80164 24.2897 10.8416 22.9635 13.6197C21.6372 16.3977 19.7053 18.8433 17.3097 20.7767C14.9141 22.71 12.1158 24.082 9.1203 24.7917C6.12483 25.5015 3.00838 25.531 0 24.8781C0.845264 28.4691 2.63863 31.7675 5.19302 34.4293C7.74741 37.0911 10.9692 39.0187 14.5224 40.011C18.0756 41.0033 21.83 41.024 25.3939 40.071C28.9579 39.1179 32.2008 37.226 34.7844 34.5926C37.368 31.9592 39.1977 28.6807 40.0825 25.0993C40.9673 21.5178 40.875 17.7645 39.815 14.2309C38.755 10.6973 36.7662 7.51283 34.0562 5.00972C31.3461 2.50661 28.0141 0.77655 24.4076 0C24.7776 1.54735 24.9675 3.13227 24.9736 4.72323Z" fill="#F5CE42"/>
<g filter="url(#filter0_d_411_2097)">
<path d="M49.8223 61.0108C53.9443 61.0141 57.9855 59.8677 61.4917 57.7003C64.9979 55.5329 67.8301 52.4305 69.6699 48.7419C71.5097 45.0533 72.2842 40.9246 71.9063 36.82C71.5284 32.7153 70.0132 28.7974 67.5309 25.5067C65.0486 22.2159 61.6976 19.6827 57.8547 18.1919C54.0117 16.7011 49.8291 16.3117 45.777 17.0675C41.7249 17.8233 37.9639 19.6943 34.9167 22.4703C31.8696 25.2462 29.6572 28.8171 28.5281 32.7814C26.5293 31.4103 24.2363 30.528 21.8339 30.2057C19.4316 29.8833 16.9871 30.13 14.6975 30.9257C12.408 31.7214 10.3374 33.0439 8.6528 34.7866C6.96815 36.5294 5.71654 38.6436 4.99887 40.9588C4.28121 43.274 4.11756 45.7254 4.52112 48.1154C4.92468 50.5055 5.88417 52.7673 7.32222 54.7185C8.76028 56.6697 10.6367 58.2557 12.8001 59.3486C14.9636 60.4416 17.3536 61.011 19.7775 61.0108H49.8223Z" fill="white"/>
</g>
<path d="M50.8857 69.0547V56.3236" stroke="#83B3CB" stroke-width="1.41108" stroke-linecap="round" stroke-linejoin="round"/>
<path d="M30.7642 79.2024V71.9517" stroke="#9FA6B7" stroke-width="1.41108" stroke-linecap="round" stroke-linejoin="round"/>
<path d="M22.7344 63.2588V56.3236" stroke="#615C9A" stroke-width="1.41108" stroke-linecap="round" stroke-linejoin="round"/>
<path d="M38.3359 60.4808V56.3236" stroke="#9FA6B7" stroke-width="1.41108" stroke-linecap="round" stroke-linejoin="round"/>
<defs>
<filter id="filter0_d_411_2097" x="0.305176" y="16.6918" width="75.6943" height="52.319" filterUnits="userSpaceOnUse" color-interpolation-filters="sRGB">
<feFlood flood-opacity="0" result="BackgroundImageFix"/>
<feColorMatrix in="SourceAlpha" type="matrix" values="0 0 0 0 0 0 0 0 0 0 0 0 0 0 0 0 0 0 127 0" result="hardAlpha"/>
<feOffset dy="4"/>
<feGaussianBlur stdDeviation="2"/>
<feComposite in2="hardAlpha" operator="out"/>
<feColorMatrix type="matrix" values="0 0 0 0 0 0 0 0 0 0 0 0 0 0 0 0 0 0 0.25 0"/>
<feBlend mode="normal" in2="BackgroundImageFix" result="effect1_dropShadow_411_2097"/>
<feBlend mode="normal" in="SourceGraphic" in2="effect1_dropShadow_411_2097" result="shape"/>
</filter>
</defs>
</svg>
