<svg width="96" height="61" viewBox="0 0 96 61" fill="none" xmlns="http://www.w3.org/2000/svg">
<g opacity="0.74">
<g filter="url(#filter0_d_411_2085)">
<path d="M55.2363 49.8817C59.8754 49.8845 64.4233 48.5935 68.3689 46.1536C72.3145 43.7138 75.5015 40.2219 77.5716 36.0703C79.6417 31.9187 80.5129 27.2721 80.0873 22.6526C79.6616 18.0331 77.9561 13.6239 75.1622 9.92046C72.3684 6.21704 68.5971 3.36621 64.2721 1.68838C59.947 0.0105595 55.2398 -0.427758 50.6794 0.42269C46.1189 1.27314 41.8861 3.37865 38.4565 6.50257C35.0269 9.6265 32.5366 13.645 31.2654 18.1065C29.0155 16.5631 26.4344 15.57 23.7302 15.2072C21.026 14.8444 18.2744 15.1221 15.6972 16.0178C13.12 16.9136 10.7894 18.4024 8.89318 20.3642C6.99695 22.3259 5.58821 24.7058 4.78053 27.312C3.97284 29.9181 3.78882 32.6775 4.24328 35.3678C4.69774 38.0581 5.77798 40.604 7.39691 42.8002C9.01583 44.9964 11.1281 46.7815 13.5636 48.0115C15.999 49.2416 18.6893 49.8822 21.4177 49.8817H55.2363Z" fill="white"/>
</g>
<path d="M76.5013 32.6252H33.8882" stroke="#83B3CB" stroke-width="1.41108" stroke-linecap="round" stroke-linejoin="round"/>
<path d="M94.9997 46.7626H70.7285" stroke="#9FA6B7" stroke-width="1.41108" stroke-linecap="round" stroke-linejoin="round"/>
<path d="M76.5013 60.2568H33.8882" stroke="#615C9A" stroke-width="1.41108" stroke-linecap="round" stroke-linejoin="round"/>
<path d="M55.2238 46.7545H41.3076" stroke="#9FA6B7" stroke-width="1.41108" stroke-linecap="round" stroke-linejoin="round"/>
</g>
<defs>
<filter id="filter0_d_411_2085" x="0" y="0" width="84.1924" height="57.8817" filterUnits="userSpaceOnUse" color-interpolation-filters="sRGB">
<feFlood flood-opacity="0" result="BackgroundImageFix"/>
<feColorMatrix in="SourceAlpha" type="matrix" values="0 0 0 0 0 0 0 0 0 0 0 0 0 0 0 0 0 0 127 0" result="hardAlpha"/>
<feOffset dy="4"/>
<feGaussianBlur stdDeviation="2"/>
<feComposite in2="hardAlpha" operator="out"/>
<feColorMatrix type="matrix" values="0 0 0 0 0 0 0 0 0 0 0 0 0 0 0 0 0 0 0.25 0"/>
<feBlend mode="normal" in2="BackgroundImageFix" result="effect1_dropShadow_411_2085"/>
<feBlend mode="normal" in="SourceGraphic" in2="effect1_dropShadow_411_2085" result="shape"/>
</filter>
</defs>
</svg>
